<?xml version="1.0" standalone="no"?>
<!DOCTYPE svg PUBLIC "-//W3C//DTD SVG 20010904//EN"
 "http://www.w3.org/TR/2001/REC-SVG-20010904/DTD/svg10.dtd">
<svg version="1.0" xmlns="http://www.w3.org/2000/svg"
 width="16.000000pt" height="16.000000pt" viewBox="0 0 16.000000 16.000000"
 preserveAspectRatio="xMidYMid meet">
<metadata>
Created by potrace 1.11, written by Peter Selinger 2001-2013
</metadata>
<g transform="translate(0.000000,16.000000) scale(0.001600,-0.001600)"
fill="#000000" stroke="none">
<path d="M1528 9605 c-2 -2 -25 -6 -52 -9 -27 -4 -52 -9 -56 -11 -3 -2 -25 -6
-48 -10 -97 -14 -291 -95 -413 -170 -116 -73 -255 -202 -343 -320 -234 -312
-310 -670 -231 -1080 35 -184 159 -419 310 -589 15 -18 23 -36 20 -45 -7 -17
-6 -278 0 -346 2 -22 6 -71 10 -110 14 -159 52 -433 79 -571 2 -12 7 -37 10
-55 3 -19 17 -88 32 -154 14 -66 30 -138 35 -160 15 -71 17 -78 43 -180 15
-55 28 -107 31 -116 13 -57 92 -318 135 -449 96 -288 250 -681 362 -920 96
-205 232 -473 315 -620 17 -30 51 -91 75 -135 104 -185 312 -503 462 -705 63
-85 294 -378 321 -406 5 -6 35 -40 65 -75 160 -185 235 -264 450 -479 360
-359 686 -636 1145 -973 255 -187 695 -464 785 -494 123 -41 247 -34 366 23
162 76 470 260 718 428 98 67 195 132 215 145 20 13 38 27 41 30 3 3 50 39
105 80 55 41 102 77 105 80 3 3 23 19 45 36 45 33 325 263 340 279 6 6 51 47
100 91 281 250 656 642 860 900 22 28 42 52 45 55 3 3 24 30 48 60 23 30 54
70 69 89 16 19 36 46 45 60 10 14 38 53 63 86 369 497 793 1295 1039 1959 78
208 181 518 192 571 1 6 11 42 22 80 19 64 60 219 67 255 2 8 10 42 18 75 17
65 63 288 72 345 3 19 8 46 10 60 10 50 13 66 25 145 6 44 13 91 15 105 5 31
13 108 20 180 3 30 7 75 10 100 18 172 23 459 10 591 -9 100 -31 208 -61 299
-37 112 -135 303 -211 410 -84 117 -286 322 -413 417 -173 130 -397 260 -590
342 -41 18 -89 39 -107 47 -31 14 -153 59 -278 102 -199 69 -613 172 -835 207
-19 3 -42 8 -50 10 -8 2 -35 6 -60 9 -25 3 -55 8 -66 10 -63 13 -360 51 -469
61 -38 4 -81 8 -95 10 -14 3 -63 7 -110 10 -47 3 -110 8 -140 10 -128 11 -184
15 -340 22 -214 10 -1184 10 -1365 0 -229 -13 -276 -16 -355 -22 -41 -3 -100
-8 -130 -10 -64 -5 -160 -14 -210 -20 -19 -3 -56 -7 -82 -10 -91 -10 -143 -16
-168 -20 -34 -5 -96 -13 -147 -20 -66 -9 -96 -14 -118 -18 -11 -3 -40 -8 -65
-11 -25 -4 -99 -18 -165 -31 -66 -13 -131 -26 -145 -29 -14 -2 -71 -16 -127
-29 l-102 -25 -40 52 c-201 260 -484 426 -836 491 -37 7 -321 15 -327 10z"/>
</g>
</svg>
